name Run_50002_GRF.mot
datacolumns 19
datarows 31
range 0.697 0.727
endheader
time	     ground_force_vx	     ground_force_vy	     ground_force_vz	     ground_force_px	     ground_force_py	     ground_force_pz	   l_ground_force_vx	   l_ground_force_vy	   l_ground_force_vz	   l_ground_force_px	   l_ground_force_py	   l_ground_force_pz	     ground_torque_x	     ground_torque_y	     ground_torque_z	   l_ground_torque_x	   l_ground_torque_y	   l_ground_torque_z	
0.697	        184.46102900	       1423.57263200	         58.03080700	          0.78577100	          0.00000000	         -0.32556700	          0.00000000	          0.00000000	          0.00000000	          0.00000000	          0.00000000	          0.00000000	          0.00000000	         -0.05870900	          0.00000000	          0.00000000	          0.00000000	          0.00000000	
0.698	        188.63481100	       1401.78930700	         58.05915100	          0.78207600	          0.00000000	         -0.32565000	          0.00000000	          0.00000000	          0.00000000	          0.00000000	          0.00000000	          0.00000000	          0.00000000	         -0.08689200	          0.00000000	          0.00000000	          0.00000000	          0.00000000	
0.699	        192.78831500	       1379.39978000	         58.05881100	          0.77831700	          0.00000000	         -0.32573600	          0.00000000	          0.00000000	          0.00000000	          0.00000000	          0.00000000	          0.00000000	          0.00000000	         -0.11827500	          0.00000000	          0.00000000	          0.00000000	          0.00000000	
0.7	        196.92089800	       1356.41809100	         58.02942300	          0.77449000	          0.00000000	         -0.32582800	          0.00000000	          0.00000000	          0.00000000	          0.00000000	          0.00000000	          0.00000000	          0.00000000	         -0.15244200	          0.00000000	          0.00000000	          0.00000000	          0.00000000	
0.701	        201.02957200	       1332.86084000	         57.97082500	          0.77059200	          0.00000000	         -0.32592300	          0.00000000	          0.00000000	          0.00000000	          0.00000000	          0.00000000	          0.00000000	          0.00000000	         -0.18897800	          0.00000000	          0.00000000	          0.00000000	          0.00000000	
0.702	        205.10856600	       1308.74719200	         57.88305700	          0.76661900	          0.00000000	         -0.32602100	          0.00000000	          0.00000000	          0.00000000	          0.00000000	          0.00000000	          0.00000000	          0.00000000	         -0.22747300	          0.00000000	          0.00000000	          0.00000000	          0.00000000	
0.703	        209.14883400	       1284.09912100	         57.76632300	          0.76256800	          0.00000000	         -0.32612200	          0.00000000	          0.00000000	          0.00000000	          0.00000000	          0.00000000	          0.00000000	          0.00000000	         -0.26751700	          0.00000000	          0.00000000	          0.00000000	          0.00000000	
0.704	        213.13790900	       1258.94177200	         57.62097500	          0.75843700	          0.00000000	         -0.32622500	          0.00000000	          0.00000000	          0.00000000	          0.00000000	          0.00000000	          0.00000000	          0.00000000	         -0.30871000	          0.00000000	          0.00000000	          0.00000000	          0.00000000	
0.705	        217.05958600	       1233.30334500	         57.44749800	          0.75422700	          0.00000000	         -0.32633100	          0.00000000	          0.00000000	          0.00000000	          0.00000000	          0.00000000	          0.00000000	          0.00000000	         -0.35065800	          0.00000000	          0.00000000	          0.00000000	          0.00000000	
0.706	        220.89401200	       1207.21521000	         57.24648700	          0.74993700	          0.00000000	         -0.32643700	          0.00000000	          0.00000000	          0.00000000	          0.00000000	          0.00000000	          0.00000000	          0.00000000	         -0.39297600	          0.00000000	          0.00000000	          0.00000000	          0.00000000	
0.707	        224.61778300	       1180.71228000	         57.01862300	          0.74556900	          0.00000000	         -0.32654500	          0.00000000	          0.00000000	          0.00000000	          0.00000000	          0.00000000	          0.00000000	          0.00000000	         -0.43529300	          0.00000000	          0.00000000	          0.00000000	          0.00000000	
0.708	        228.20434600	       1153.83276400	         56.76469000	          0.74112600	          0.00000000	         -0.32665400	          0.00000000	          0.00000000	          0.00000000	          0.00000000	          0.00000000	          0.00000000	          0.00000000	         -0.47724500	          0.00000000	          0.00000000	          0.00000000	          0.00000000	
0.709	        231.62445100	       1126.61816400	         56.48552300	          0.73661200	          0.00000000	         -0.32676300	          0.00000000	          0.00000000	          0.00000000	          0.00000000	          0.00000000	          0.00000000	          0.00000000	         -0.51848600	          0.00000000	          0.00000000	          0.00000000	          0.00000000	
0.71	        234.84692400	       1099.11340300	         56.18203400	          0.73203400	          0.00000000	         -0.32687200	          0.00000000	          0.00000000	          0.00000000	          0.00000000	          0.00000000	          0.00000000	          0.00000000	         -0.55868200	          0.00000000	          0.00000000	          0.00000000	          0.00000000	
0.711	        237.83943200	       1071.36596700	         55.85517500	          0.72739900	          0.00000000	         -0.32698100	          0.00000000	          0.00000000	          0.00000000	          0.00000000	          0.00000000	          0.00000000	          0.00000000	         -0.59751500	          0.00000000	          0.00000000	          0.00000000	          0.00000000	
0.712	        240.56944300	       1043.42590300	         55.50597000	          0.72271500	          0.00000000	         -0.32708900	          0.00000000	          0.00000000	          0.00000000	          0.00000000	          0.00000000	          0.00000000	          0.00000000	         -0.63468300	          0.00000000	          0.00000000	          0.00000000	          0.00000000	
0.713	        243.00523400	       1015.34527600	         55.13546800	          0.71799300	          0.00000000	         -0.32719500	          0.00000000	          0.00000000	          0.00000000	          0.00000000	          0.00000000	          0.00000000	          0.00000000	         -0.66990200	          0.00000000	          0.00000000	          0.00000000	          0.00000000	
0.714	        245.11685200	        987.17742900	         54.74476200	          0.71324400	          0.00000000	         -0.32730000	          0.00000000	          0.00000000	          0.00000000	          0.00000000	          0.00000000	          0.00000000	          0.00000000	         -0.70290400	          0.00000000	          0.00000000	          0.00000000	          0.00000000	
0.715	        246.87710600	        958.97650100	         54.33497600	          0.70848100	          0.00000000	         -0.32740300	          0.00000000	          0.00000000	          0.00000000	          0.00000000	          0.00000000	          0.00000000	          0.00000000	         -0.73344000	          0.00000000	          0.00000000	          0.00000000	          0.00000000	
0.716	        248.26240500	        930.79650900	         53.90725700	          0.70371600	          0.00000000	         -0.32750200	          0.00000000	          0.00000000	          0.00000000	          0.00000000	          0.00000000	          0.00000000	          0.00000000	         -0.76128100	          0.00000000	          0.00000000	          0.00000000	          0.00000000	
0.717	        249.25349400	        902.69073500	         53.46276500	          0.69896300	          0.00000000	         -0.32759900	          0.00000000	          0.00000000	          0.00000000	          0.00000000	          0.00000000	          0.00000000	          0.00000000	         -0.78621500	          0.00000000	          0.00000000	          0.00000000	          0.00000000	
0.718	        249.83593800	        874.71130400	         53.00266600	          0.69423700	          0.00000000	         -0.32769100	          0.00000000	          0.00000000	          0.00000000	          0.00000000	          0.00000000	          0.00000000	          0.00000000	         -0.80805100	          0.00000000	          0.00000000	          0.00000000	          0.00000000	
0.719	        250.00058000	        846.90814200	         52.52811100	          0.68955100	          0.00000000	         -0.32777900	          0.00000000	          0.00000000	          0.00000000	          0.00000000	          0.00000000	          0.00000000	          0.00000000	         -0.82661600	          0.00000000	          0.00000000	          0.00000000	          0.00000000	
0.72	        249.74350000	        819.32873500	         52.04023400	          0.68492000	          0.00000000	         -0.32786100	          0.00000000	          0.00000000	          0.00000000	          0.00000000	          0.00000000	          0.00000000	          0.00000000	         -0.84175800	          0.00000000	          0.00000000	          0.00000000	          0.00000000	
0.721	        249.06608600	        792.01763900	         51.54012300	          0.68035700	          0.00000000	         -0.32793800	          0.00000000	          0.00000000	          0.00000000	          0.00000000	          0.00000000	          0.00000000	          0.00000000	         -0.85334200	          0.00000000	          0.00000000	          0.00000000	          0.00000000	
0.722	        247.97465500	        765.01611300	         51.02880900	          0.67587400	          0.00000000	         -0.32800800	          0.00000000	          0.00000000	          0.00000000	          0.00000000	          0.00000000	          0.00000000	          0.00000000	         -0.86125400	          0.00000000	          0.00000000	          0.00000000	          0.00000000	
0.723	        246.48002600	        738.36206100	         50.50725200	          0.67148600	          0.00000000	         -0.32807000	          0.00000000	          0.00000000	          0.00000000	          0.00000000	          0.00000000	          0.00000000	          0.00000000	         -0.86540000	          0.00000000	          0.00000000	          0.00000000	          0.00000000	
0.724	        244.59697000	        712.08960000	         49.97631800	          0.66720200	          0.00000000	         -0.32812600	          0.00000000	          0.00000000	          0.00000000	          0.00000000	          0.00000000	          0.00000000	          0.00000000	         -0.86570400	          0.00000000	          0.00000000	          0.00000000	          0.00000000	
0.725	        242.34350600	        686.22955300	         49.43675600	          0.66303400	          0.00000000	         -0.32817200	          0.00000000	          0.00000000	          0.00000000	          0.00000000	          0.00000000	          0.00000000	          0.00000000	         -0.86210800	          0.00000000	          0.00000000	          0.00000000	          0.00000000	
0.726	        239.74018900	        660.80883800	         48.88919400	          0.65899200	          0.00000000	         -0.32820900	          0.00000000	          0.00000000	          0.00000000	          0.00000000	          0.00000000	          0.00000000	          0.00000000	         -0.85457200	          0.00000000	          0.00000000	          0.00000000	          0.00000000	
0.727	        236.80943300	        635.85119600	         48.33412200	          0.65508500	          0.00000000	         -0.32823700	          0.00000000	          0.00000000	          0.00000000	          0.00000000	          0.00000000	          0.00000000	          0.00000000	         -0.84307600	          0.00000000	          0.00000000	          0.00000000	          0.00000000	
